<?xml version="1.0" encoding="UTF-8"?>
<!DOCTYPE svg PUBLIC "-//W3C//DTD SVG 1.1//EN" "http://www.w3.org/Graphics/SVG/1.1/DTD/svg11.dtd">
<!-- Creator: CorelDRAW -->
<svg xmlns="http://www.w3.org/2000/svg" xml:space="preserve" width="109.944mm" height="32.9352mm" version="1.1" style="shape-rendering:geometricPrecision; text-rendering:geometricPrecision; image-rendering:optimizeQuality; fill-rule:evenodd; clip-rule:evenodd"
viewBox="0 0 4659.7 1395.87"
 xmlns:xlink="http://www.w3.org/1999/xlink"
 xmlns:xodm="http://www.corel.com/coreldraw/odm/2003">
 <defs>
  <style type="text/css">
   <![CDATA[
    .fil0 {fill:black}
    .fil1 {fill:black;fill-rule:nonzero}
   ]]>
  </style>
 </defs>
 <g id="Camada_x0020_1">
  <metadata id="CorelCorpID_0Corel-Layer"/>
  <g id="_2234692080256">
   <path class="fil0" d="M507.3 404.65c208.75,-5.99 316.08,72.94 415.65,158.34 41.88,-149.05 120.7,-277.15 255.89,-373.23 -1.58,-0.39 -3.16,-0.89 -4.72,-1.28 -9.63,-2.37 -19.21,-4.72 -28.69,-6.72 -271.95,-57.23 -488.47,7.62 -638.13,222.89z"/>
   <path class="fil0" d="M-0 688.79c113.55,-187.3 280.62,-285.4 507.3,-284.15 121.79,-175.97 294.14,-255.85 509.14,-240.67 51.5,3.62 106.21,10.98 162.4,25.78 -234.79,-217.4 -558.18,-225.06 -759.77,-137.32 -189.79,82.59 -412.14,289.31 -419.07,636.36z"/>
   <path class="fil0" d="M507.3 991.23c208.75,5.99 316.08,-72.94 415.65,-158.34 41.88,149.05 120.7,277.15 255.89,373.23 -4.66,1.14 -9.24,2.41 -13.83,3.5 -13.56,3.23 -26.98,6.15 -40.34,8.68 -262.08,49.57 -471.59,-17.39 -617.37,-227.07z"/>
   <path class="fil0" d="M-0 707.08c113.55,187.3 280.62,285.4 507.3,284.15 121.79,175.97 294.14,255.85 509.14,240.67 51.5,-3.62 106.21,-10.98 162.4,-25.78 -234.79,217.4 -558.18,225.06 -759.77,137.32 -189.79,-82.59 -412.14,-289.31 -419.07,-636.36z"/>
   <path class="fil0" d="M-0 688.79c88.8,-157.74 215.86,-240.64 368.82,-271.18 26.94,-5.38 54.67,-9.28 83.21,-11.22 12.34,-0.84 24.9,-1.41 37.53,-1.64 5.88,-0.1 11.93,-0.11 17.74,-0.1 -136.75,218.87 -104.88,408.97 0,586.58 -11.82,0.06 -23.83,-0.08 -35.67,-0.64 -27.74,-1.3 -55.16,-3.96 -81.7,-8.4 -154.08,-25.75 -288.37,-105.71 -389.94,-275.11 0,-6.09 0,-12.19 0,-18.28z"/>
   <path class="fil1" d="M1175.46 692.65c0,-68.2 14.76,-129.03 44.27,-182.47 29.51,-53.45 70.66,-95.09 123.45,-124.93 52.79,-29.84 112.63,-44.76 179.52,-44.76 81.98,0 152.14,21.64 210.51,64.92 58.37,43.29 97.39,102.31 117.06,177.07l-184.93 0c-13.77,-28.85 -33.28,-50.82 -58.53,-65.91 -25.25,-15.08 -53.94,-22.62 -86.07,-22.62 -51.81,0 -93.78,18.03 -125.91,54.11 -32.13,36.07 -48.2,84.27 -48.2,144.6 0,60.34 16.07,108.53 48.2,144.6 32.13,36.07 74.11,54.1 125.91,54.1 32.13,0 60.82,-7.54 86.07,-22.62 25.25,-15.08 44.76,-37.05 58.53,-65.91l184.93 0c-19.67,74.76 -58.69,133.62 -117.06,176.57 -58.36,42.95 -128.53,64.43 -210.51,64.43 -66.89,0 -126.73,-14.92 -179.52,-44.76 -52.79,-29.84 -93.94,-71.32 -123.45,-124.44 -29.51,-53.12 -44.27,-113.78 -44.27,-181.98zm1027.96 354.13c-53.77,0 -102.14,-11.48 -145.09,-34.43 -42.95,-22.95 -76.73,-55.74 -101.32,-98.37 -24.59,-42.62 -36.89,-92.47 -36.89,-149.52 0,-56.4 12.46,-106.07 37.38,-149.03 24.92,-42.95 59.02,-75.91 102.3,-98.86 43.28,-22.95 91.81,-34.43 145.58,-34.43 53.78,0 102.31,11.48 145.59,34.43 43.28,22.95 77.39,55.91 102.3,98.86 24.92,42.95 37.38,92.63 37.38,149.03 0,56.4 -12.62,106.07 -37.87,149.03 -25.25,42.95 -59.67,75.91 -103.29,98.86 -43.61,22.95 -92.3,34.43 -146.08,34.43zm0 -145.59c32.13,0 59.51,-11.8 82.14,-35.41 22.62,-23.61 33.94,-57.39 33.94,-101.32 0,-43.94 -10.99,-77.71 -32.95,-101.32 -21.97,-23.61 -49.02,-35.41 -81.16,-35.41 -32.79,0 -60.01,11.64 -81.65,34.92 -21.64,23.28 -32.46,57.22 -32.46,101.81 0,43.94 10.65,77.71 31.97,101.32 21.31,23.61 48.04,35.41 80.17,35.41zm544.97 -333.47c16.39,-25.58 39.02,-46.23 67.88,-61.98 28.85,-15.74 62.63,-23.61 101.32,-23.61 45.25,0 86.24,11.48 122.96,34.43 36.73,22.95 65.74,55.75 87.06,98.37 21.31,42.63 31.97,92.14 31.97,148.54 0,56.4 -10.65,106.07 -31.97,149.03 -21.31,42.95 -50.33,76.07 -87.06,99.35 -36.72,23.28 -77.71,34.92 -122.96,34.92 -38.03,0 -71.64,-7.87 -100.83,-23.61 -29.18,-15.74 -51.97,-36.07 -68.37,-60.99l0 338.39 -168.21 0 0 -810.56 168.21 0 0 77.71zm240.02 195.75c0,-41.97 -11.64,-74.92 -34.92,-98.86 -23.28,-23.93 -51.97,-35.9 -86.07,-35.9 -33.44,0 -61.81,12.13 -85.09,36.39 -23.28,24.26 -34.92,57.38 -34.92,99.35 0,41.97 11.64,75.09 34.92,99.35 23.28,24.26 51.65,36.4 85.09,36.4 33.44,0 61.97,-12.3 85.58,-36.89 23.61,-24.59 35.41,-57.87 35.41,-99.84zm820.4 -273.46l-344.29 809.58 -181 0 125.91 -279.37 -223.3 -530.21 187.89 0 126.9 343.31 125.91 -343.31 181.99 0zm578.41 265.59c0,15.74 -0.98,32.13 -2.95,49.18l-380.69 0c2.62,34.11 13.6,60.17 32.95,78.2 19.35,18.03 43.12,27.05 71.32,27.05 41.97,0 71.16,-17.71 87.55,-53.12l179.03 0c-9.18,36.07 -25.74,68.53 -49.68,97.38 -23.94,28.86 -53.94,51.48 -90.01,67.88 -36.07,16.4 -76.4,24.59 -120.99,24.59 -53.77,0 -101.65,-11.48 -143.62,-34.43 -41.97,-22.95 -74.76,-55.74 -98.37,-98.37 -23.61,-42.62 -35.41,-92.47 -35.41,-149.52 0,-57.05 11.64,-106.89 34.92,-149.52 23.28,-42.62 55.91,-75.42 97.88,-98.37 41.97,-22.95 90.17,-34.43 144.6,-34.43 53.12,0 100.34,11.15 141.65,33.44 41.31,22.3 73.61,54.11 96.89,95.42 23.28,41.31 34.92,89.52 34.92,144.6zm-172.14 -44.26c0,-28.85 -9.84,-51.81 -29.51,-68.86 -19.67,-17.05 -44.27,-25.57 -73.78,-25.57 -28.2,0 -51.97,8.2 -71.32,24.59 -19.34,16.39 -31.31,39.67 -35.9,69.84l210.51 0zm345.28 -278.38c-29.51,0 -53.61,-8.69 -72.3,-26.07 -18.69,-17.38 -28.03,-38.86 -28.03,-64.43 0,-26.23 9.34,-48.04 28.03,-65.42 18.69,-17.38 42.79,-26.07 72.3,-26.07 28.85,0 52.63,8.69 71.32,26.07 18.69,17.38 28.04,39.19 28.04,65.42 0,25.57 -9.35,47.05 -28.04,64.43 -18.69,17.38 -42.46,26.07 -71.32,26.07zm83.61 57.06l0 548.9 -168.21 0 0 -548.9 168.21 0z"/>
  </g>
 </g>
</svg>
