<?xml version="1.0" encoding="UTF-8"?>
<!DOCTYPE svg PUBLIC "-//W3C//DTD SVG 1.1//EN" "http://www.w3.org/Graphics/SVG/1.1/DTD/svg11.dtd">
<!-- Creator: CorelDRAW -->
<svg xmlns="http://www.w3.org/2000/svg" xml:space="preserve" width="109.944mm" height="32.9352mm" version="1.1" style="shape-rendering:geometricPrecision; text-rendering:geometricPrecision; image-rendering:optimizeQuality; fill-rule:evenodd; clip-rule:evenodd"
viewBox="0 0 175209.84 52486.36"
 xmlns:xlink="http://www.w3.org/1999/xlink"
 xmlns:xodm="http://www.corel.com/coreldraw/odm/2003">
 <defs>
  <style type="text/css">
   <![CDATA[
    .fil5 {fill:#4B4B4D;fill-rule:nonzero}
    .fil0 {fill:url(#id0)}
    .fil1 {fill:url(#id1)}
    .fil3 {fill:url(#id2)}
    .fil4 {fill:url(#id3)}
    .fil2 {fill:url(#id4)}
   ]]>
  </style>
  <linearGradient id="id0" gradientUnits="userSpaceOnUse" x1="44385.17" y1="6619.92" x2="22162.55" y2="6136.57">
   <stop offset="0" style="stop-opacity:1; stop-color:#0E39E8"/>
   <stop offset="1" style="stop-opacity:1; stop-color:#09C2EE"/>
  </linearGradient>
  <linearGradient id="id1" gradientUnits="userSpaceOnUse" xlink:href="#id0" x1="44429.79" y1="927.01" x2="5420.4" y2="60.24">
  </linearGradient>
  <linearGradient id="id2" gradientUnits="userSpaceOnUse" xlink:href="#id0" x1="24999.52" y1="54943.1" x2="-3406.06" y2="29946.13">
  </linearGradient>
  <linearGradient id="id3" gradientUnits="userSpaceOnUse" xlink:href="#id0" x1="23498.8" y1="19933.86" x2="1573.7" y2="21658.64">
  </linearGradient>
  <linearGradient id="id4" gradientUnits="userSpaceOnUse" xlink:href="#id0" x1="33469.16" y1="47647.8" x2="16981.83" y2="33450.51">
  </linearGradient>
 </defs>
 <g id="Camada_x0020_1">
  <metadata id="CorelCorpID_0Corel-Layer"/>
  <g id="_2233456868528">
   <path class="fil0" d="M19075.22 15215.14c7849.4,-225.34 11884.78,2742.79 15628.84,5953.78 1574.66,-5604.3 4538.33,-10421.19 9621.83,-14033.94 -59.44,-14.5 -118.73,-33.63 -177.53,-48.13 -361.91,-89.24 -722.39,-177.53 -1078.88,-252.59 -10225.66,-2152.03 -18366.85,286.53 -23994.26,8380.87z"/>
   <path class="fil1" d="M-0 25899.44c4269.64,-7042.55 10551.55,-10731.47 19075.22,-10684.3 4579.28,-6616.73 11060.08,-9620.24 19144.38,-9049.56 1936.41,136.25 3993.78,412.91 6106.29,969.4 -8828.21,-8174.5 -20988.04,-8462.63 -28568.28,-5163.35 -7136.41,3105.66 -15497.05,10878.4 -15757.61,23927.8z"/>
   <path class="fil2" d="M19075.22 37271.23c7849.4,225.34 11884.78,-2742.79 15628.84,-5953.78 1574.66,5604.3 4538.33,10421.19 9621.83,14033.94 -175.3,42.71 -347.25,90.52 -519.84,131.63 -509.96,121.59 -1014.5,231.24 -1516.97,326.37 -9854.5,1864.06 -17732.43,-653.71 -23213.86,-8538.17z"/>
   <path class="fil3" d="M-0 26586.93c4269.64,7042.55 10551.55,10731.47 19075.22,10684.3 4579.28,6616.73 11060.08,9620.24 19144.38,9049.56 1936.41,-136.25 3993.78,-412.91 6106.29,-969.4 -8828.21,8174.5 -20988.04,8462.63 -28568.28,5163.35 -7136.41,-3105.66 -15497.05,-10878.4 -15757.61,-23927.8z"/>
   <path class="fil4" d="M-0 25899.44c3338.8,-5931.31 8116.49,-9048.28 13868.04,-10196.81 1013.07,-202.23 2055.78,-348.84 3128.92,-421.99 464.06,-31.71 936.1,-52.91 1411.31,-61.67 221.2,-3.82 448.61,-4.14 666.93,-3.82 -5141.99,8229.8 -3943.74,15377.69 0,22056.09 -444.46,2.23 -896.1,-3.19 -1341.19,-24.06 -1043.19,-48.76 -2073.94,-148.84 -3072.03,-315.86 -5793.62,-968.13 -10842.87,-3974.98 -14661.99,-10344.38 0,-229.16 0,-458.33 0,-687.49z"/>
   <path class="fil5" d="M44198.72 26044.46c0,-2564.46 554.9,-4851.63 1664.54,-6861.19 1109.64,-2009.72 2656.89,-3575.46 4641.91,-4697.53 1985.02,-1121.91 4235.06,-1682.87 6750.28,-1682.87 3082.39,0 5720.8,813.71 7915.38,2441.12 2194.74,1627.57 3661.83,3846.85 4401.59,6657.85l-6953.62 0c-517.93,-1084.94 -1251.47,-1911.08 -2200.8,-2478.25 -949.48,-567.01 -2028.21,-850.68 -3236.49,-850.68 -1948.05,0 -3526.21,678.09 -4734.5,2034.42 -1208.29,1356.18 -1812.43,3168.6 -1812.43,5437.13 0,2268.68 604.14,4080.96 1812.43,5437.29 1208.29,1356.18 2786.45,2034.26 4734.5,2034.26 1208.29,0 2287.01,-283.51 3236.49,-850.68 949.32,-567.17 1682.87,-1393.31 2200.8,-2478.25l6953.62 0c-739.76,2811.15 -2206.85,5024.22 -4401.59,6639.36 -2194.58,1615.14 -4832.99,2422.63 -7915.38,2422.63 -2515.22,0 -4765.26,-560.96 -6750.28,-1682.87 -1985.02,-1121.91 -3532.27,-2681.59 -4641.91,-4679.04 -1109.64,-1997.29 -1664.54,-4278.25 -1664.54,-6842.71zm38652.26 13315.69c-2021.99,0 -3840.48,-431.55 -5455.62,-1294.66 -1615.14,-862.95 -2885.1,-2095.94 -3809.88,-3698.8 -924.62,-1602.71 -1386.93,-3476.81 -1386.93,-5622.15 0,-2120.64 468.53,-3988.53 1405.58,-5603.66 936.89,-1615.14 2219.12,-2854.18 3846.69,-3717.29 1627.41,-862.95 3452.11,-1294.5 5474.1,-1294.5 2022.15,0 3846.85,431.55 5474.26,1294.5 1627.41,863.11 2909.8,2102.15 3846.69,3717.29 937.05,1615.14 1405.58,3483.03 1405.58,5603.66 0,2120.64 -474.58,3988.53 -1424.06,5603.66 -949.32,1615.14 -2243.82,2854.34 -3883.66,3717.29 -1639.84,863.11 -3470.76,1294.66 -5492.75,1294.66zm0 -5474.26c1208.29,0 2237.77,-443.82 3088.6,-1331.47 850.68,-887.81 1276.02,-2157.77 1276.02,-3809.88 0,-1652.11 -413.07,-2921.91 -1239.04,-3809.72 -826.14,-887.65 -1843.35,-1331.47 -3051.63,-1331.47 -1232.83,0 -2256.25,437.61 -3069.96,1312.99 -813.71,875.38 -1220.56,2151.55 -1220.56,3828.21 0,1652.11 400.64,2922.07 1202.07,3809.88 801.43,887.65 1806.21,1331.47 3014.5,1331.47zm20491.31 -12538.8c616.41,-961.75 1467.25,-1738.49 2552.19,-2330.36 1084.94,-591.71 2354.9,-887.65 3809.72,-887.65 1701.51,0 3242.55,431.55 4623.43,1294.5 1381.04,863.11 2472.03,2096.1 3273.47,3698.8 801.43,1602.87 1202.07,3464.54 1202.07,5585.18 0,2120.64 -400.64,3988.53 -1202.07,5603.66 -801.43,1615.14 -1892.43,2860.4 -3273.47,3735.78 -1380.88,875.38 -2921.91,1313.15 -4623.43,1313.15 -1430.12,0 -2693.86,-295.94 -3791.23,-887.81 -1097.37,-591.71 -1954.26,-1356.18 -2570.68,-2293.23l0 12723.82 -6324.94 0 0 -30477.92 6324.94 0 0 2922.07zm9025.02 7360.48c0,-1578.17 -437.61,-2817.21 -1312.99,-3717.29 -875.38,-899.92 -1954.26,-1349.96 -3236.49,-1349.96 -1257.53,0 -2324.14,456.1 -3199.52,1368.45 -875.38,912.35 -1312.99,2157.61 -1312.99,3735.78 0,1578.17 437.61,2823.43 1312.99,3735.78 875.38,912.35 1941.99,1368.61 3199.52,1368.61 1257.53,0 2330.2,-462.31 3218.01,-1387.09 887.65,-924.62 1331.47,-2176.1 1331.47,-3754.26zm30847.96 -10282.55l-12945.81 30440.95 -6805.74 0 4734.34 -10504.54 -8396.17 -19936.41 7064.7 0 4771.47 12908.68 4734.34 -12908.68 6842.87 0zm21748.84 9986.61c0,591.87 -36.97,1208.29 -110.92,1849.4l-14314.26 0c98.65,1282.39 511.55,2262.47 1239.04,2940.56 727.49,678.09 1621.35,1017.21 2681.59,1017.21 1578.17,0 2675.54,-665.82 3291.95,-1997.29l6731.79 0c-345.18,1356.18 -967.81,2576.73 -1867.89,3661.67 -900.08,1085.1 -2028.21,1935.78 -3384.38,2552.19 -1356.18,616.57 -2872.67,924.78 -4549.48,924.78 -2021.99,0 -3822.15,-431.55 -5400.32,-1294.66 -1578.17,-862.95 -2811,-2095.94 -3698.8,-3698.8 -887.65,-1602.71 -1331.47,-3476.81 -1331.47,-5622.15 0,-2145.18 437.61,-4019.28 1312.99,-5622.15 875.38,-1602.71 2102.15,-2835.7 3680.32,-3698.8 1578.17,-862.95 3390.6,-1294.5 5437.29,-1294.5 1997.29,0 3772.75,419.12 5326.21,1257.53 1553.47,838.41 2767.97,2034.42 3643.35,3587.89 875.38,1553.47 1312.99,3365.9 1312.99,5437.13zm-6472.83 -1664.38c0,-1084.94 -369.88,-1948.05 -1109.64,-2589.16 -739.76,-641.12 -1664.54,-961.59 -2774.18,-961.59 -1060.24,0 -1954.1,308.21 -2681.59,924.62 -727.33,616.41 -1177.37,1491.79 -1349.96,2626.13l7915.38 0zm12982.79 -10467.57c-1109.64,0 -2015.94,-326.69 -2718.72,-980.24 -702.79,-653.39 -1054.02,-1461.04 -1054.02,-2422.63 0,-986.29 351.23,-1806.21 1054.02,-2459.76 702.79,-653.39 1609.08,-980.08 2718.72,-980.08 1084.94,0 1978.8,326.69 2681.59,980.08 702.79,653.55 1054.18,1473.47 1054.18,2459.76 0,961.59 -351.39,1769.24 -1054.18,2422.63 -702.79,653.55 -1596.65,980.24 -2681.59,980.24zm3143.9 2145.34l0 20639.2 -6324.94 0 0 -20639.2 6324.94 0z"/>
  </g>
 </g>
</svg>
